<svg width="17" height="17" viewBox="0 0 17 17" fill="none" xmlns="http://www.w3.org/2000/svg">
<path d="M8.54965 0.772461C4.28375 0.772461 0.824829 4.22984 0.824829 8.49383C0.824829 11.6548 2.72845 14.371 5.44937 15.5672C5.42868 15.0294 5.44593 14.3814 5.58387 13.7954C5.73216 13.168 6.57706 9.58654 6.57706 9.58654C6.57706 9.58654 6.32876 9.09362 6.32876 8.36629C6.32876 7.22187 6.99089 6.36701 7.81855 6.36701C8.52206 6.36701 8.86002 6.89441 8.86002 7.52521C8.86002 8.23186 8.40826 9.28665 8.1772 10.2656C7.98408 11.086 8.58758 11.7513 9.398 11.7513C10.8602 11.7513 11.8465 9.87265 11.8465 7.64586C11.8465 5.95336 10.705 4.6883 8.63241 4.6883C6.29083 4.6883 4.82863 6.43595 4.82863 8.38697C4.82863 9.05915 5.02865 9.53484 5.33902 9.90022C5.48041 10.0691 5.5011 10.1381 5.44937 10.3311C5.41144 10.4724 5.32867 10.8137 5.29074 10.9516C5.23901 11.1481 5.08038 11.217 4.9045 11.1446C3.82509 10.7034 3.3216 9.5245 3.3216 8.19394C3.3216 6.00162 5.17349 3.37153 8.84278 3.37153C11.7913 3.37153 13.7329 5.50525 13.7329 7.79408C13.7329 10.824 12.0465 13.0853 9.56353 13.0853C8.72898 13.0853 7.94615 12.6337 7.67716 12.1236C7.67716 12.1236 7.22884 13.9022 7.13228 14.2469C6.9702 14.8433 6.64948 15.4362 6.35635 15.9015C7.06741 16.1112 7.80485 16.218 8.5462 16.2187C12.8121 16.2187 16.271 12.7613 16.271 8.49728C16.271 4.23329 12.8155 0.772461 8.54965 0.772461Z" fill="#242D33"/>
</svg>
