<svg width="18" height="18" viewBox="0 0 18 18" fill="none" xmlns="http://www.w3.org/2000/svg">
<path d="M12.1763 2.15081C13.1253 2.15354 14.0346 2.51752 14.7057 3.16326C15.3767 3.809 15.755 4.68403 15.7578 5.59724V12.4894C15.755 13.4026 15.3767 14.2776 14.7057 14.9234C14.0346 15.5691 13.1253 15.9331 12.1763 15.9358H5.01393C4.06492 15.9331 3.15559 15.5691 2.48453 14.9234C1.81347 14.2776 1.43522 13.4026 1.43239 12.4894V5.59724C1.43522 4.68403 1.81347 3.809 2.48453 3.16326C3.15559 2.51752 4.06492 2.15354 5.01393 2.15081H12.1763ZM12.1763 0.772461H5.01393C2.25621 0.772461 0 2.94356 0 5.59724V12.4894C0 15.1431 2.25621 17.3142 5.01393 17.3142H12.1763C14.934 17.3142 17.1902 15.1431 17.1902 12.4894V5.59724C17.1902 2.94356 14.934 0.772461 12.1763 0.772461Z" fill="#242D33"/>
<path d="M13.2505 5.59701C13.038 5.59701 12.8302 5.53637 12.6536 5.42277C12.4769 5.30917 12.3392 5.1477 12.2579 4.95879C12.1765 4.76988 12.1553 4.56201 12.1967 4.36146C12.2382 4.16091 12.3405 3.97669 12.4908 3.83211C12.641 3.68752 12.8324 3.58905 13.0409 3.54916C13.2493 3.50927 13.4653 3.52974 13.6616 3.60799C13.8579 3.68625 14.0257 3.81876 14.1438 3.98877C14.2618 4.15879 14.3248 4.35868 14.3248 4.56315C14.3251 4.699 14.2976 4.83357 14.2437 4.95914C14.1898 5.0847 14.1107 5.19879 14.0108 5.29485C13.911 5.39091 13.7925 5.46705 13.662 5.51891C13.5315 5.57076 13.3916 5.5973 13.2505 5.59701ZM8.59491 6.286C9.16159 6.286 9.71554 6.4477 10.1867 6.75065C10.6579 7.0536 11.0251 7.4842 11.242 7.98799C11.4588 8.49178 11.5156 9.04613 11.405 9.58095C11.2945 10.1158 11.0216 10.607 10.6209 10.9926C10.2202 11.3782 9.70966 11.6408 9.15388 11.7472C8.59809 11.8535 8.022 11.7989 7.49846 11.5903C6.97492 11.3816 6.52745 11.0282 6.21262 10.5748C5.89779 10.1214 5.72975 9.58837 5.72975 9.04307C5.73057 8.31209 6.03269 7.61127 6.56984 7.09439C7.10698 6.57751 7.83527 6.28678 8.59491 6.286ZM8.59491 4.90765C7.74494 4.90765 6.91405 5.15019 6.20732 5.60459C5.50059 6.059 4.94977 6.70486 4.6245 7.46051C4.29923 8.21616 4.21412 9.04766 4.37994 9.84985C4.54576 10.652 4.95506 11.3889 5.55609 11.9673C6.15711 12.5456 6.92286 12.9395 7.7565 13.099C8.59014 13.2586 9.45424 13.1767 10.2395 12.8637C11.0248 12.5507 11.696 12.0207 12.1682 11.3406C12.6404 10.6605 12.8925 9.86098 12.8925 9.04307C12.8925 7.94629 12.4397 6.89443 11.6337 6.11889C10.8278 5.34334 9.73469 4.90765 8.59491 4.90765Z" fill="#242D33"/>
</svg>
