<svg width="99" height="56" viewBox="0 0 99 56" fill="none" xmlns="http://www.w3.org/2000/svg">
<rect x="0.75" y="0.75" width="97.5" height="54.5" fill="#151819" stroke="#151819" stroke-width="1.5"/>
<path d="M14.5 36L16.289 39.711L20 41.5L16.289 43.289L14.5 47L12.711 43.289L9 41.5L12.711 39.711L14.5 36Z" fill="white"/>
<path d="M17.2991 25.0919C16.8091 25.0919 16.2272 25.0689 15.5534 25.023C15.3084 25.0077 15.0022 24.9923 14.6347 24.977C14.2825 24.9617 13.8844 24.9541 13.4403 24.9541L11.7406 24.977C11.4344 24.9923 11.0209 25 10.5003 25C10.4697 25 10.4544 24.9541 10.4544 24.8622C10.4544 24.7703 10.4697 24.7244 10.5003 24.7244C10.9903 24.7244 11.3502 24.6861 11.5798 24.6095C11.8095 24.533 11.9627 24.3875 12.0392 24.1731C12.1311 23.9434 12.177 23.5989 12.177 23.1395V12.505C12.177 12.0456 12.1311 11.7087 12.0392 11.4944C11.9627 11.28 11.8095 11.1345 11.5798 11.058C11.3655 10.9661 11.0209 10.9202 10.5462 10.9202C10.5003 10.9202 10.4773 10.8742 10.4773 10.7823C10.4773 10.6905 10.5003 10.6445 10.5462 10.6445L11.7636 10.6675C12.468 10.6981 13.0269 10.7134 13.4403 10.7134C14.0681 10.7134 14.7112 10.6905 15.3697 10.6445C16.1659 10.6139 16.7019 10.5986 16.9775 10.5986C18.5241 10.5986 19.8945 10.9048 21.0889 11.5173C22.2986 12.1298 23.2327 12.9644 23.8911 14.0209C24.5495 15.0775 24.8787 16.2642 24.8787 17.5811C24.8787 19.0664 24.5342 20.3833 23.8452 21.5317C23.1714 22.6648 22.2527 23.5453 21.0889 24.1731C19.9405 24.7856 18.6772 25.0919 17.2991 25.0919ZM17.0694 24.5636C18.0494 24.5636 18.9145 24.3186 19.6648 23.8286C20.4152 23.3233 20.997 22.5806 21.4105 21.6006C21.8392 20.6206 22.0536 19.4492 22.0536 18.0864C22.0536 16.7848 21.8545 15.6058 21.4564 14.5492C21.0583 13.4773 20.4917 12.6352 19.7567 12.0227C19.0217 11.4102 18.1719 11.1039 17.2072 11.1039C16.2578 11.1039 15.607 11.1958 15.2548 11.3795C14.9027 11.5633 14.7266 11.9537 14.7266 12.5509V22.8869C14.7266 23.4994 14.8873 23.9358 15.2089 24.1961C15.5305 24.4411 16.1506 24.5636 17.0694 24.5636ZM37.3985 21.348C37.3985 21.3173 37.4291 21.302 37.4904 21.302C37.5363 21.302 37.5746 21.3173 37.6052 21.348C37.6512 21.3633 37.6741 21.3786 37.6741 21.3939C37.521 22.5883 37.4445 23.6755 37.4445 24.6555C37.4445 24.778 37.4215 24.8698 37.3755 24.9311C37.3296 24.977 37.2377 25 37.0999 25H26.9477C26.9018 25 26.8788 24.9541 26.8788 24.8622C26.8788 24.7703 26.9018 24.7244 26.9477 24.7244C27.4377 24.7244 27.7899 24.6861 28.0043 24.6095C28.234 24.533 28.3871 24.3875 28.4637 24.1731C28.5402 23.9434 28.5785 23.5989 28.5785 23.1395V12.505C28.5785 12.0456 28.5402 11.7087 28.4637 11.4944C28.3871 11.28 28.234 11.1345 28.0043 11.058C27.7746 10.9661 27.4224 10.9202 26.9477 10.9202C26.9018 10.9202 26.8788 10.8742 26.8788 10.7823C26.8788 10.6905 26.9018 10.6445 26.9477 10.6445H36.6865C36.8396 10.6445 36.9162 10.7134 36.9162 10.8512L36.9621 13.9061C36.9621 13.9367 36.9162 13.9597 36.8243 13.975C36.7477 13.9903 36.7018 13.975 36.6865 13.9291C36.4415 13.0409 36.028 12.3825 35.4462 11.9537C34.8643 11.525 34.0987 11.3106 33.1493 11.3106H32.4602C32.0009 11.3106 31.664 11.4102 31.4496 11.6092C31.2352 11.8083 31.128 12.1145 31.128 12.528V17.2136H33.0345C33.9226 17.2136 34.604 17.0605 35.0787 16.7542C35.5534 16.448 35.7907 16.0192 35.7907 15.468C35.7907 15.422 35.829 15.3991 35.9055 15.3991C35.9974 15.3991 36.0434 15.422 36.0434 15.468L36.0204 17.5352L36.0434 18.6377C36.074 19.1583 36.0893 19.5717 36.0893 19.878C36.0893 19.9086 36.0434 19.9239 35.9515 19.9239C35.8596 19.9239 35.8137 19.9086 35.8137 19.878C35.8137 19.2502 35.5687 18.7602 35.0787 18.408C34.604 18.0405 33.9149 17.8567 33.0115 17.8567H31.128V23.0477C31.128 23.4917 31.2123 23.8209 31.3807 24.0353C31.5491 24.2497 31.8171 24.3569 32.1846 24.3569H32.9426C34.1369 24.3569 35.094 24.1119 35.8137 23.6219C36.5334 23.1319 37.0616 22.3739 37.3985 21.348ZM42.6758 12.9644C42.6758 13.5156 42.8136 14.0056 43.0892 14.4344C43.3801 14.8631 43.7323 15.2383 44.1458 15.5598C44.5592 15.8814 45.1181 16.2719 45.8225 16.7312C46.5881 17.2212 47.2006 17.65 47.66 18.0175C48.1194 18.385 48.5098 18.8367 48.8314 19.3727C49.1529 19.8933 49.3137 20.4981 49.3137 21.1872C49.3137 21.9834 49.0994 22.6955 48.6706 23.3233C48.2419 23.9358 47.6447 24.4181 46.879 24.7703C46.1287 25.1072 45.2865 25.2756 44.3525 25.2756C43.6634 25.2756 42.9437 25.1838 42.1934 25C41.4431 24.8009 40.9378 24.5866 40.6775 24.3569C40.6009 24.2956 40.5397 24.242 40.4937 24.1961C40.4631 24.1348 40.4478 24.043 40.4478 23.9205L40.3789 20.2684V20.2455C40.3789 20.1842 40.4172 20.1536 40.4937 20.1536C40.5703 20.1383 40.6162 20.1612 40.6315 20.2225C41.0909 21.1566 41.489 21.9145 41.8259 22.4964C42.1781 23.0783 42.6145 23.5912 43.1351 24.0353C43.6711 24.4794 44.2759 24.7014 44.9497 24.7014C45.5622 24.7014 46.0675 24.5406 46.4656 24.2191C46.8637 23.8822 47.0628 23.3156 47.0628 22.5194C47.0628 21.8456 46.9097 21.2561 46.6034 20.7508C46.3125 20.2455 45.9526 19.8167 45.5239 19.4645C45.0951 19.1123 44.5056 18.6912 43.7553 18.2012C43.0203 17.7266 42.4461 17.3208 42.0326 16.9839C41.6345 16.647 41.29 16.2412 40.999 15.7666C40.7081 15.2919 40.5626 14.733 40.5626 14.0898C40.5626 13.2783 40.7923 12.5969 41.2517 12.0456C41.7264 11.4791 42.3312 11.0656 43.0662 10.8053C43.8012 10.5297 44.5745 10.3919 45.3861 10.3919C45.922 10.3919 46.4656 10.4455 47.0169 10.5527C47.5681 10.6445 48.0122 10.7594 48.349 10.8972C48.4869 10.9584 48.5787 11.0273 48.6247 11.1039C48.6706 11.1652 48.6936 11.2494 48.6936 11.3566V14.733C48.6936 14.7789 48.6553 14.8172 48.5787 14.8478C48.5022 14.8631 48.4562 14.8478 48.4409 14.8019L48.2572 14.3655C47.8744 13.4008 47.4226 12.5816 46.902 11.9078C46.3967 11.2341 45.6847 10.8972 44.7659 10.8972C44.1534 10.8972 43.6481 11.0733 43.25 11.4255C42.8672 11.7777 42.6758 12.2906 42.6758 12.9644ZM55.5991 11.1728C53.7769 11.1728 52.4677 12.3595 51.6714 14.733C51.6561 14.7789 51.6102 14.8019 51.5336 14.8019C51.4571 14.7866 51.4188 14.7559 51.4188 14.71C51.48 14.0975 51.5489 13.3089 51.6255 12.3442C51.7021 11.3642 51.7403 10.6292 51.7403 10.1392C51.7403 10.0627 51.7786 10.0244 51.8552 10.0244C51.9471 10.0244 51.993 10.0627 51.993 10.1392C51.993 10.4761 52.4294 10.6445 53.3022 10.6445C54.6191 10.6905 56.158 10.7134 57.9189 10.7134C58.8224 10.7134 59.7794 10.6981 60.79 10.6675L62.3519 10.6445C62.9338 10.6445 63.3549 10.6062 63.6152 10.5297C63.8908 10.4531 64.0669 10.3 64.1435 10.0703C64.1588 10.0091 64.2047 9.97844 64.2813 9.97844C64.3732 9.97844 64.4191 10.0091 64.4191 10.0703C64.3732 10.5297 64.3196 11.2647 64.2583 12.2753C64.2124 13.2859 64.1894 14.0975 64.1894 14.71C64.1894 14.7559 64.1511 14.7789 64.0746 14.7789C63.998 14.7789 63.9521 14.7559 63.9368 14.71C63.7071 13.5309 63.2783 12.6505 62.6505 12.0686C62.0227 11.4714 61.2494 11.1728 60.3307 11.1728C59.8866 11.1728 59.588 11.2723 59.4349 11.4714C59.2971 11.6552 59.2282 12.015 59.2282 12.5509V23.1395C59.2282 23.6142 59.2741 23.9587 59.366 24.1731C59.4578 24.3875 59.6339 24.533 59.8942 24.6095C60.1546 24.6861 60.568 24.7244 61.1346 24.7244C61.1805 24.7244 61.2035 24.7703 61.2035 24.8622C61.2035 24.9541 61.1805 25 61.1346 25C60.5833 25 60.1469 24.9923 59.8253 24.977L57.9189 24.9541L56.0585 24.977C55.7369 24.9923 55.2928 25 54.7263 25C54.6803 25 54.6574 24.9541 54.6574 24.8622C54.6574 24.7703 54.6803 24.7244 54.7263 24.7244C55.2775 24.7244 55.6833 24.6861 55.9436 24.6095C56.2192 24.533 56.403 24.3875 56.4949 24.1731C56.6021 23.9434 56.6557 23.5989 56.6557 23.1395V12.505C56.6557 11.9844 56.5867 11.6322 56.4489 11.4484C56.3111 11.2647 56.0278 11.1728 55.5991 11.1728ZM70.4732 23.1395C70.4732 23.6142 70.5114 23.9587 70.588 24.1731C70.6646 24.3875 70.81 24.533 71.0244 24.6095C71.2541 24.6861 71.6139 24.7244 72.1039 24.7244C72.1499 24.7244 72.1728 24.7703 72.1728 24.8622C72.1728 24.9541 72.1499 25 72.1039 25C71.5986 25 71.2005 24.9923 70.9096 24.977L69.1639 24.9541L67.4642 24.977C67.158 24.9923 66.7446 25 66.2239 25C66.1933 25 66.178 24.9541 66.178 24.8622C66.178 24.7703 66.1933 24.7244 66.2239 24.7244C66.7139 24.7244 67.0738 24.6861 67.3035 24.6095C67.5332 24.533 67.6863 24.3875 67.7628 24.1731C67.8547 23.9434 67.9007 23.5989 67.9007 23.1395V12.505C67.9007 12.0456 67.8547 11.7087 67.7628 11.4944C67.6863 11.28 67.5332 11.1345 67.3035 11.058C67.0738 10.9661 66.7139 10.9202 66.2239 10.9202C66.1933 10.9202 66.178 10.8742 66.178 10.7823C66.178 10.6905 66.1933 10.6445 66.2239 10.6445L67.4642 10.6675C68.1686 10.6981 68.7352 10.7134 69.1639 10.7134C69.6386 10.7134 70.2282 10.6981 70.9325 10.6675L72.1039 10.6445C72.1499 10.6445 72.1728 10.6905 72.1728 10.7823C72.1728 10.8742 72.1499 10.9202 72.1039 10.9202C71.6292 10.9202 71.2771 10.9661 71.0474 11.058C70.8177 11.1498 70.6646 11.3106 70.588 11.5403C70.5114 11.7547 70.4732 12.0916 70.4732 12.5509V23.1395ZM89.7163 10.6445C89.7469 10.6445 89.7622 10.6905 89.7622 10.7823C89.7622 10.8742 89.7469 10.9202 89.7163 10.9202C89.1038 10.9202 88.6215 11.1652 88.2693 11.6552C87.9171 12.1298 87.741 12.773 87.741 13.5845V25.3445C87.741 25.3905 87.7027 25.4211 87.6261 25.4364C87.5649 25.4517 87.519 25.4441 87.4883 25.4134L76.716 13.1481V22.083C76.716 22.8945 76.8844 23.5377 77.2213 24.0123C77.5582 24.487 78.0252 24.7244 78.6224 24.7244C78.653 24.7244 78.6683 24.7703 78.6683 24.8622C78.6683 24.9541 78.653 25 78.6224 25C78.1936 25 77.8644 24.9923 77.6347 24.977L76.3944 24.9541L74.9704 24.977C74.7101 24.9923 74.3349 25 73.8449 25C73.799 25 73.776 24.9541 73.776 24.8622C73.776 24.7703 73.799 24.7244 73.8449 24.7244C74.5186 24.7244 75.0469 24.487 75.4297 24.0123C75.8279 23.5377 76.0269 22.8945 76.0269 22.083V12.3672C75.5216 11.8159 75.0852 11.4408 74.7177 11.2417C74.3655 11.0273 73.998 10.9202 73.6152 10.9202C73.5846 10.9202 73.5693 10.8742 73.5693 10.7823C73.5693 10.6905 73.5846 10.6445 73.6152 10.6445L74.5799 10.6675C74.779 10.6828 75.0699 10.6905 75.4527 10.6905L77.1983 10.6675C77.4127 10.6522 77.673 10.6445 77.9793 10.6445C78.1018 10.6445 78.1936 10.6752 78.2549 10.7364C78.3161 10.7977 78.4233 10.9278 78.5765 11.1269C78.8368 11.4791 79.0205 11.7164 79.1277 11.8389L87.0749 21.0034V13.5845C87.0749 12.7577 86.9065 12.1069 86.5696 11.6322C86.2327 11.1575 85.7657 10.9202 85.1685 10.9202C85.1379 10.9202 85.1226 10.8742 85.1226 10.7823C85.1226 10.6905 85.1379 10.6445 85.1685 10.6445L86.1561 10.6675C86.6461 10.6981 87.0596 10.7134 87.3965 10.7134C87.7027 10.7134 88.1315 10.6981 88.6827 10.6675L89.7163 10.6445ZM38.4649 35.9061C38.4649 35.9367 38.419 35.9597 38.3271 35.975C38.2506 35.9903 38.2046 35.975 38.1893 35.9291C37.9443 35.0409 37.5309 34.3825 36.949 33.9537C36.3671 33.525 35.6015 33.3106 34.6521 33.3106H33.9631C33.5037 33.3106 33.1668 33.4102 32.9524 33.6092C32.7381 33.8083 32.6309 34.1145 32.6309 34.528V39.4892H34.2846C35.1728 39.4892 35.8465 39.3361 36.3059 39.0298C36.7806 38.7083 37.0179 38.2719 37.0179 37.7206C37.0179 37.69 37.0639 37.6747 37.1557 37.6747C37.2476 37.6747 37.2935 37.69 37.2935 37.7206L37.2706 39.8108C37.2706 40.3008 37.2782 40.6683 37.2935 40.9133L37.3165 42.1306C37.3165 42.1766 37.2706 42.1995 37.1787 42.1995C37.0868 42.1995 37.0409 42.1766 37.0409 42.1306C37.0409 41.5181 36.7959 41.0358 36.3059 40.6836C35.8312 40.3161 35.1498 40.1323 34.2617 40.1323H32.6309V45.0477C32.6309 45.5223 32.6921 45.8745 32.8146 46.1042C32.9371 46.3339 33.1668 46.4947 33.5037 46.5866C33.8406 46.6784 34.3689 46.7244 35.0885 46.7244C35.1192 46.7244 35.1345 46.7703 35.1345 46.8622C35.1345 46.9541 35.1192 47 35.0885 47C34.4607 47 33.9707 46.9923 33.6185 46.977L31.2757 46.9541L29.5531 46.977C29.2468 46.9923 28.8257 47 28.2898 47C28.2439 47 28.2209 46.9541 28.2209 46.8622C28.2209 46.7703 28.2439 46.7244 28.2898 46.7244C28.8257 46.7244 29.2162 46.6861 29.4612 46.6095C29.7062 46.533 29.867 46.3875 29.9435 46.1731C30.0354 45.9434 30.0814 45.5989 30.0814 45.1395V34.505C30.0814 34.0456 30.0431 33.7087 29.9665 33.4944C29.8899 33.28 29.7368 33.1345 29.5071 33.058C29.2774 32.9661 28.9253 32.9202 28.4506 32.9202C28.4046 32.9202 28.3817 32.8742 28.3817 32.7823C28.3817 32.6905 28.4046 32.6445 28.4506 32.6445H38.1893C38.3424 32.6445 38.419 32.7134 38.419 32.8512L38.4649 35.9061ZM44.4015 45.0477C44.4015 45.4458 44.4321 45.7367 44.4933 45.9205C44.5546 46.0889 44.6694 46.2037 44.8379 46.265C45.0216 46.3262 45.3126 46.3569 45.7107 46.3569H46.4916C47.686 46.3569 48.7196 46.043 49.5924 45.4152C50.4652 44.772 51.0471 43.9069 51.338 42.8197C51.338 42.7891 51.3687 42.7737 51.4299 42.7737C51.4605 42.7737 51.4912 42.7891 51.5218 42.8197C51.5677 42.835 51.5907 42.8503 51.5907 42.8656C51.4529 44.3816 51.384 45.6448 51.384 46.6555C51.384 46.778 51.3533 46.8698 51.2921 46.9311C51.2462 46.977 51.1619 47 51.0394 47H40.1982C40.1676 47 40.1522 46.9541 40.1522 46.8622C40.1522 46.7703 40.1676 46.7244 40.1982 46.7244C40.6882 46.7244 41.0404 46.6861 41.2547 46.6095C41.4844 46.533 41.6376 46.3875 41.7141 46.1731C41.806 45.9434 41.8519 45.5989 41.8519 45.1395V34.505C41.8519 34.0456 41.806 33.7087 41.7141 33.4944C41.6376 33.28 41.4844 33.1345 41.2547 33.058C41.0251 32.9661 40.6729 32.9202 40.1982 32.9202C40.1676 32.9202 40.1522 32.8742 40.1522 32.7823C40.1522 32.6905 40.1676 32.6445 40.1982 32.6445L41.3696 32.6675C42.074 32.6981 42.6558 32.7134 43.1152 32.7134C43.5746 32.7134 44.1565 32.6981 44.8608 32.6675L46.0322 32.6445C46.0782 32.6445 46.1012 32.6905 46.1012 32.7823C46.1012 32.8742 46.0782 32.9202 46.0322 32.9202C45.5576 32.9202 45.2054 32.9661 44.9757 33.058C44.746 33.1345 44.5929 33.2877 44.5163 33.5173C44.4398 33.7317 44.4015 34.0686 44.4015 34.528V45.0477ZM60.4319 47.2756C59.0078 47.2756 57.7369 46.9464 56.619 46.288C55.5165 45.6142 54.659 44.7108 54.0465 43.5777C53.4494 42.4292 53.1508 41.1812 53.1508 39.8337C53.1508 38.2566 53.5489 36.9091 54.3451 35.7912C55.1414 34.6581 56.1597 33.8083 57.4 33.2417C58.6556 32.6752 59.9342 32.3919 61.2358 32.3919C62.6905 32.3919 63.969 32.7364 65.0715 33.4255C66.174 34.0992 67.0162 34.995 67.5981 36.1128C68.1953 37.2306 68.4939 38.4173 68.4939 39.673C68.4939 41.0664 68.1264 42.345 67.3914 43.5087C66.6564 44.6725 65.6687 45.5912 64.4284 46.265C63.2034 46.9387 61.8712 47.2756 60.4319 47.2756ZM61.1898 46.7014C62.0473 46.7014 62.813 46.4564 63.4867 45.9664C64.1758 45.4611 64.7117 44.7337 65.0945 43.7844C65.4773 42.8197 65.6687 41.6712 65.6687 40.3391C65.6687 38.9303 65.4544 37.6747 65.0256 36.5722C64.5969 35.4544 63.9767 34.5816 63.1651 33.9537C62.3536 33.3259 61.4042 33.012 60.317 33.012C58.9236 33.012 57.8517 33.5403 57.1014 34.5969C56.3511 35.6381 55.9759 37.1005 55.9759 38.9839C55.9759 40.4692 56.198 41.8014 56.642 42.9805C57.1014 44.1442 57.7215 45.0553 58.5025 45.7137C59.2987 46.3722 60.1945 46.7014 61.1898 46.7014ZM90.1348 32.6445C90.1654 32.6445 90.1807 32.6905 90.1807 32.7823C90.1807 32.8742 90.1654 32.9202 90.1348 32.9202C89.5682 32.9202 89.0323 33.1652 88.527 33.6552C88.037 34.1298 87.6312 34.7883 87.3096 35.6305L83.0604 46.977C83.0451 47.0383 82.9609 47.0689 82.8077 47.0689C82.6546 47.0689 82.5704 47.0383 82.5551 46.977L79.6151 40.7525L77.2952 46.977C77.2799 47.0383 77.1957 47.0689 77.0426 47.0689C76.8894 47.0689 76.8052 47.0383 76.7899 46.977L70.9329 34.5509C70.7032 34.0609 70.5118 33.7087 70.3587 33.4944C70.2209 33.28 70.0601 33.1345 69.8763 33.058C69.7079 32.9661 69.4782 32.9202 69.1873 32.9202C69.1413 32.9202 69.1184 32.8742 69.1184 32.7823C69.1184 32.6905 69.1413 32.6445 69.1873 32.6445C69.4169 32.6445 69.5777 32.6522 69.6696 32.6675C69.9759 32.6981 70.374 32.7134 70.864 32.7134C71.8899 32.7134 72.7551 32.6981 73.4594 32.6675C73.6585 32.6522 73.9035 32.6445 74.1944 32.6445C74.2404 32.6445 74.2634 32.6905 74.2634 32.7823C74.2634 32.8742 74.2404 32.9202 74.1944 32.9202C73.8116 32.9202 73.536 32.9584 73.3676 33.035C73.2144 33.1116 73.1379 33.2494 73.1379 33.4484C73.1379 33.7087 73.314 34.2141 73.6662 34.9644L77.8005 43.7384L79.2476 39.9486L76.698 34.5509C76.4377 33.9997 76.1927 33.5939 75.963 33.3336C75.7334 33.058 75.4884 32.9202 75.228 32.9202C75.1821 32.9202 75.1591 32.8742 75.1591 32.7823C75.1591 32.6905 75.1821 32.6445 75.228 32.6445C75.3812 32.6445 75.5573 32.6598 75.7563 32.6905C75.9707 32.7058 76.2693 32.7134 76.6521 32.7134C77.5249 32.7134 78.2523 32.6981 78.8341 32.6675C78.9873 32.6522 79.1863 32.6445 79.4313 32.6445C79.4773 32.6445 79.5002 32.6905 79.5002 32.7823C79.5002 32.8742 79.4773 32.9202 79.4313 32.9202C79.2169 32.9202 79.0562 32.9508 78.949 33.012C78.8571 33.058 78.8112 33.1498 78.8112 33.2877C78.8112 33.548 79.0179 34.1069 79.4313 34.9644L80.442 37.1005L81.0162 35.5616C81.353 34.6887 81.5215 34.0303 81.5215 33.5862C81.5215 33.1422 81.3301 32.9202 80.9473 32.9202C80.9013 32.9202 80.8784 32.8742 80.8784 32.7823C80.8784 32.6905 80.9013 32.6445 80.9473 32.6445C81.0698 32.6445 81.1999 32.6598 81.3377 32.6905C81.4909 32.7058 81.8584 32.7134 82.4402 32.7134C82.7005 32.7134 83.0145 32.6981 83.382 32.6675L84.2318 32.6445C84.2624 32.6445 84.2777 32.6905 84.2777 32.7823C84.2777 32.8742 84.2624 32.9202 84.2318 32.9202C83.2059 32.9202 82.356 33.8236 81.6823 35.6305L80.8324 37.9044L83.5887 43.7155L86.5516 35.7912C86.7354 35.3012 86.8273 34.8572 86.8273 34.4591C86.8273 33.9844 86.7048 33.6092 86.4598 33.3336C86.2301 33.058 85.9162 32.9202 85.518 32.9202C85.4721 32.9202 85.4491 32.8742 85.4491 32.7823C85.4491 32.6905 85.4721 32.6445 85.518 32.6445L86.5746 32.6675C87.1259 32.6981 87.6312 32.7134 88.0905 32.7134C88.3968 32.7134 88.749 32.6981 89.1471 32.6675L90.1348 32.6445Z" fill="white"/>
</svg>
